<svg xmlns="http://www.w3.org/2000/svg" version="1.1" xmlns:xlink="http://www.w3.org/1999/xlink" xmlns:svgjs="http://svgjs.dev/svgjs" width="1500" height="1500" viewBox="0 0 1500 1500"><g transform="matrix(1,0,0,1,-0.323615160350073,-0.3236151603499593)"><svg viewBox="0 0 343 343" data-background-color="#fe2106" preserveAspectRatio="xMidYMid meet" height="1500" width="1500" xmlns="http://www.w3.org/2000/svg" xmlns:xlink="http://www.w3.org/1999/xlink"><g id="tight-bounds" transform="matrix(1,0,0,1,0.0740000000000407,0.07400000000001228)"><svg viewBox="0 0 342.85155851775386 342.85155851775386" height="342.85155851775386" width="342.85155851775386"><g><svg></svg></g><g><svg viewBox="0 0 342.85155851775386 342.85155851775386" height="342.85155851775386" width="342.85155851775386"><g><path d="M0 171.426c0-94.676 76.75-171.426 171.426-171.426 94.676 0 171.426 76.75 171.426 171.426 0 94.676-76.75 171.426-171.426 171.426-94.676 0-171.426-76.75-171.426-171.426zM171.426 333.098c89.289 0 161.672-72.383 161.672-161.672 0-89.289-72.383-161.672-161.672-161.673-89.289 0-161.672 72.383-161.673 161.673 0 89.289 72.383 161.672 161.673 161.672z" data-fill-palette-color="tertiary" fill="#efdec0" stroke="transparent"></path><ellipse rx="164.56874808852186" ry="164.56874808852186" cx="171.42577925887693" cy="171.42577925887693" fill="#efdec0" stroke="transparent" stroke-width="0" fill-opacity="1" data-fill-palette-color="tertiary"></ellipse></g><g transform="matrix(1,0,0,1,64.84655864529837,117.34897496553906)"><svg viewBox="0 0 213.1584412271571 108.15360858667574" height="108.15360858667574" width="213.1584412271571"><g><svg viewBox="0 0 213.1584412271571 108.15360858667574" height="108.15360858667574" width="213.1584412271571"><g><svg viewBox="0 0 213.1584412271571 108.15360858667574" height="108.15360858667574" width="213.1584412271571"><g id="textblocktransform"><svg viewBox="0 0 213.1584412271571 108.15360858667574" height="108.15360858667574" width="213.1584412271571" id="textblock"><g><svg viewBox="0 0 213.1584412271571 108.15360858667574" height="108.15360858667574" width="213.1584412271571"><g transform="matrix(1,0,0,1,0,0)"><svg width="213.1584412271571" viewBox="3 -39 77.85 39.5" height="108.15360858667574" data-palette-color="#fe2106"><path d="M33.55-35.4L34.45-38.5 35.85-38.5 36.3-27 34.45-27Q33.35-31.4 30.2-33.9 27.05-36.4 22.6-36.4L22.6-36.4Q19.55-36.4 17.15-35.2 14.75-34 13.1-31.75 11.45-29.5 10.58-26.25 9.7-23 9.7-18.9L9.7-18.9Q9.7-10.85 13.05-6.53 16.4-2.2 22.75-2.2L22.75-2.2Q32.4-2.2 35.15-12.45L35.15-12.45 37.2-12.45 37.2 0 35.45 0 34.3-3.95Q29.05 0.5 21.6 0.5L21.6 0.5Q17.35 0.5 13.93-0.85 10.5-2.2 8.08-4.67 5.65-7.15 4.33-10.7 3-14.25 3-18.6L3-18.6Q3-23.15 4.4-26.9 5.8-30.65 8.33-33.35 10.85-36.05 14.38-37.52 17.9-39 22.15-39L22.15-39Q25.15-39 27.8-38.15 30.45-37.3 33.55-35.4L33.55-35.4ZM73-28.85L73-28.85Q73-24.85 70.6-22.2 68.2-19.55 62.95-18.65L62.95-18.65 74-5.35Q75.35-3.7 76.97-2.98 78.6-2.25 80.85-1.9L80.85-1.9 80.85 0 71.2 0 58.95-15.7Q58.3-16.55 57.72-17.05 57.15-17.55 56.52-17.82 55.9-18.1 55.07-18.18 54.25-18.25 53.1-18.25L53.1-18.25 53.1-7.85Q53.1-6 53.32-4.83 53.55-3.65 54.27-3 55-2.35 56.37-2.13 57.75-1.9 60-1.9L60-1.9 60 0 42.35 0 42.35-1.9Q44.1-1.95 45.17-2.2 46.25-2.45 46.85-3.05 47.45-3.65 47.65-4.75 47.85-5.85 47.85-7.6L47.85-7.6 47.85-30.9Q47.85-32.65 47.67-33.73 47.5-34.8 46.97-35.43 46.45-36.05 45.45-36.27 44.45-36.5 42.85-36.6L42.85-36.6 42.85-38.5 58.55-38.5Q65.45-38.5 69.22-35.95 73-33.4 73-28.85ZM53.1-35.3L53.1-20.75 56.65-20.75Q61.65-20.75 64.07-22.58 66.5-24.4 66.5-28.6L66.5-28.6Q66.5-32.65 64.57-34.4 62.65-36.15 58.55-36.15L58.55-36.15 53.95-36.15Q53.1-36.15 53.1-35.3L53.1-35.3Z" opacity="1" transform="matrix(1,0,0,1,0,0)" fill="#fe2106" class="wordmark-text-0" data-fill-palette-color="quaternary" id="text-0"></path></svg></g></svg></g></svg></g></svg></g></svg></g></svg></g></svg></g><defs></defs></svg><rect width="342.85155851775386" height="342.85155851775386" fill="none" stroke="none" visibility="hidden"></rect></g></svg></g></svg>